<svg width="32" height="32" viewBox="0 0 32 32" fill="none" xmlns="http://www.w3.org/2000/svg">
<path d="M9.99996 29.3333C14.0501 29.3333 17.3333 26.0501 17.3333 22C17.3333 17.9499 14.0501 14.6667 9.99996 14.6667C5.94987 14.6667 2.66663 17.9499 2.66663 22C2.66663 23.3357 3.02373 24.588 3.64769 25.6667L3.03329 28.9667L6.33329 28.3523C7.41193 28.9763 8.66424 29.3333 9.99996 29.3333Z" stroke="white" stroke-width="1.5" stroke-linecap="round" stroke-linejoin="round"/>
<path d="M20.3765 23.8637C21.6783 23.654 22.9011 23.2087 24 22.5729L28.8 23.4667L27.9063 18.6667C28.8139 17.0977 29.3333 15.2761 29.3333 13.3333C29.3333 7.44229 24.5577 2.66666 18.6667 2.66666C13.2968 2.66666 8.85377 6.63464 8.10962 11.7985" stroke="white" stroke-width="1.5" stroke-linecap="round" stroke-linejoin="round"/>
</svg>
